PathFileType	4	(X/Y/Z)	C:/Users/beibeiliu/ov580/test_trc/User1\sequence.3_training_dense_right.trc
DataRate	CameraRate	NumFrames	NumMarkers	Units	OrigDataRate	OrigDataStartFrame	OrigNumFrames
120	120	10	19	mm	120	61	242
Frame#	Time	ThumbCMC			ThumbMCP			ThumbIP			ThumbTip			IndexMCP			IndexPIP			IndexTip			MiddleMCP			MiddlePIP			MiddleTip			RingMCP			RingPIP			RingTip			PinkyMCP			PinkyPIP			PinkyTip			BackHand1			BackHand2			BackHand3	
		X0	Y0	Z0	X1	Y1	Z1	X2	Y2	Z2	X3	Y3	Z3	X4	Y4	Z4	X5	Y5	Z5	X6	Y6	Z6	X7	Y7	Z7	X8	Y8	Z8	X9	Y9	Z9	X10	Y10	Z10	X11	Y11	Z11	X12	Y12	Z12	X13	Y13	Z13	X14	Y14	Z14	X15	Y15	Z15	X16	Y16	Z16	X17	Y17	Z17	X18	Y18	Z18	
60	0.5	166.508	81.8728	38.4654	172.226	102.378	10.0663	171.969	111.753	-17.8533	152.38	117.7	-41.9242	161.989	63.9273	-50.7792	153.741	93.8943	-62.1633	155.481	105.966	-28.3697	141.281	58.6157	-54.8478	133.684	92.1851	-63.8474	130.524	97.0795	-20.6671	114.752	58.6561	-54.4567	108.021	89.031	-53.9527	109.996	92.8309	-20.067	94.099	50.9968	-35.6895	98.7511	80.2617	-45.1707	99.8105	95.862	-19.9137	119.92	31.5542	6.85538	117.157	30.2626	42.6209	152.613	40.7523	24.6532	
61	0.508333	168.493	90.8001	34.9095	174.13	117.925	11.6658	170.471	125.151	-18.7115	149.487	123.572	-38.0473	169.365	74.1133	-46.4226	151.367	100.368	-61.8066	153.807	114.558	-31.9436	143.359	64.953	-53.8742	134.135	99.7516	-62.3708	133.561	105.173	-23.694	124.961	62.0756	-52.2438	112.718	90.6858	-57.1895	110.885	97.2018	-22.566	105.653	53.6169	-38.6798	99.1704	78.5992	-47.8092	105.044	96.6686	-15.9754	128.984	37.3999	5.65299	126.644	34.6773	41.2844	162.651	51.9377	26.2888	
62	0.516667	169.695	102.523	36.5647	168.37	127.74	10.7696	163.742	134.426	-21.1185	143.22	131.903	-40.2507	170.064	84.794	-46.3319	151.34	105.634	-62.45	150.306	123.516	-29.8652	149.282	74.5209	-59.2527	133.754	104.118	-62.7818	130.171	107.526	-21.4221	129.263	62.8083	-51.3241	115.089	95.1363	-55.9771	112.926	97.5183	-19.901	111.028	51.2574	-37.0628	104.365	80.0602	-47.1603	107.2	95.0105	-17.6521	140.275	42.8041	8.72084	135.964	37.9409	43.4045	167.098	62.1942	24.6283	
63	0.525	166.759	114.941	34.9428	160.195	138.25	9.26696	154.316	145.424	-19.177	132.27	135.611	-42.0409	170.878	97.3477	-47.3011	150.506	120.364	-63.0762	141.965	127.228	-27.5593	154.054	82.0052	-56.3477	132.082	105.482	-64.041	125.559	109.793	-20.5576	137.126	66.031	-51.2101	114.634	90.2484	-57.3749	111.191	96.2458	-25.1457	122.257	51.523	-37.4713	111.875	75.3283	-49.0523	105.36	93.3132	-20.9826	153.277	48.0339	5.25956	148.541	45.6154	43.5287	174.45	76.328	25.0304	
64	0.533333	156.616	124.98	40.2661	145.586	149.456	8.3102	136.394	154.269	-16.0588	121.56	136.701	-40.3167	173.044	117.414	-45.7062	142.846	129.441	-62.0349	131.772	132.584	-28.5024	160.869	97.5031	-56.1935	129.172	107.958	-63.4484	120.397	114.053	-25.3987	148.394	74.2643	-52.4279	115.611	89.933	-56.9259	112.224	95.1994	-27.2207	138.949	56.2002	-39.1961	117.592	74.2718	-49.5263	106.348	86.9322	-21.7971	166.34	59.0822	4.40267	163.862	54.6882	41.8938	177.39	90.592	27.3267	
65	0.541667	149.673	131.777	38.5898	132.841	147.917	10.7477	124.795	153.03	-16.1969	113.385	136.185	-38.3848	168.97	126.767	-45.0899	138.084	126.758	-62.0895	122.896	130.231	-32.9837	161.727	101.994	-59.4615	130.274	108.464	-65.3234	116.714	111.187	-29.4927	154.888	83.4432	-54.4497	123.339	90.7607	-58.7837	115.883	92.9389	-25.17	150.369	61.2062	-41.7978	123.292	71.8911	-48.7578	114.769	81.9796	-22.2319	175.761	69.1344	7.49612	172.035	65.7598	43.1218	180.944	100.735	25.4725	
66	0.55	143.016	133.982	37.4241	122.8	145.911	10.8111	115.412	149.405	-20.5032	109.343	129.644	-40.2315	162.988	131.036	-48.4886	136.837	130.606	-65.5321	117.254	129.028	-31.5265	164.56	108.52	-56.0614	130.425	107.667	-66.9027	116.361	103.938	-28.1355	158.818	85.2855	-57.3111	124.544	86.0345	-57.9434	118.208	87.4606	-27.2762	160.079	64.2639	-42.1147	134.359	70.5591	-51.5145	118.483	74.1005	-20.3863	183.811	76.0835	3.58216	178.725	71.4767	39.598	177.833	109.193	27.9453	
67	0.558333	135.952	133.626	36.7019	114.512	140.791	8.02605	109.075	139.274	-21.9348	102.99	122.958	-43.0787	158.177	134.46	-49.0571	130.573	128.747	-65.1259	114.396	120.703	-33.5989	160.162	115.049	-59.5909	130.892	104.713	-68.3767	115.266	97.4344	-33.1517	165.458	87.8669	-54.1433	131.828	83.9514	-61.6019	122.503	81.4108	-29.0462	166.926	65.7314	-42.7466	135.944	71.1505	-48.827	124.501	70.6379	-20.924	186.237	85.2275	6.34552	184.86	76.464	41.6091	175.762	118.641	25.3558	
68	0.566667	128.798	128.344	34.7027	107.246	131.033	7.92565	96.3811	132.611	-23.0628	98.693	112.93	-46.6864	151.997	136.051	-47.658	128.939	122.401	-67.439	109.8	115.843	-37.6621	159.854	114.509	-62.3036	131.392	101.048	-69.5164	116.324	90.5551	-34.2741	167.524	90.9594	-57.2637	135.693	82.4941	-62.873	126.054	78.0984	-28.0415	171.644	72.4501	-44.7779	145.726	70.0418	-51.7667	132	69.1127	-19.2453	187.495	94.7124	5.8323	187.706	85.5913	37.1468	173.366	119.368	23.5453	
69	0.575	125.708	120.932	28.9542	100.985	119.722	5.09726	92.6715	118.47	-27.0884	95.7421	100.665	-46.9711	139.598	138.161	-52.6795	120.142	119.363	-68.5035	105.732	106.258	-39.2178	154.86	119.107	-61.3695	127.996	99.851	-71.3445	120.173	82.3593	-35.5564	168.312	96.9587	-57.5128	139.603	81.8149	-65.5103	133.34	69.9533	-32.1472	173.678	79.6421	-47.6646	151.2	65.2607	-54.6342	137.793	62.8361	-24.6204	189.125	101.518	0.803033	186.072	95.4886	38.8961	163.594	123.937	26.1864	
